<svg t="1677234836959" viewBox="0 0 1078 1024" version="1.1" xmlns="http://www.w3.org/2000/svg" p-id="4287" width="200" height="200"><path d="M946.256357 450.408536v362.319417l-421.36642 168.291262V371.156267" fill="#D6AD76" p-id="4288"></path><path d="M524.889937 371.156267v609.862948l-407.260126-185.505066V415.439369" fill="#F5CB93" p-id="4289"></path><path d="M946.256357 217.542943L525.538947 47.278863 117.629811 198.240273l407.260126 172.915994z" fill="#C9A26F" p-id="4290"></path><path d="M526.127784 350.963894V62.704667l-9.120523 4.298078 371.17346 148.833861z" fill="#E3B77D" p-id="4291"></path><path d="M126.539728 775.957892l51.112749-254.643956L524.365572 686.072177V482.63123l83.099049 171.923138 340.979458-140.405329-2.187722-47.386315-414.008109-75.414084L223.50008 373.748008H120.346197z" fill="#6E6E96" opacity=".2" p-id="4292"></path><path d="M524.889937 371.156267L117.629811 198.240273 42.980785 380.556165l399.381748 186.622566z" fill="#F5CB93" p-id="4293"></path><path d="M946.256357 217.542943L1035.836908 408.944973l-406.84751 157.898508-104.099461-195.687214z" fill="#E3B77D" p-id="4294"></path><path d="M1055.294309 399.833047l-89.580551-191.40203c-0.09026-0.193414-0.2235-0.356741-0.318058-0.545856a21.477498 21.477498 0 0 0-2.247895-3.537319 21.309873 21.309873 0 0 0-1.598885-1.818087c-0.300865-0.305164-0.593135-0.618923-0.906895-0.902597a20.656565 20.656565 0 0 0-2.183423-1.706337c-0.227798-0.159029-0.438404-0.343846-0.670501-0.494279a21.146546 21.146546 0 0 0-3.004356-1.607481l-0.266481-0.11175-0.120347-0.047279-420.321986-170.105051a21.49469 21.49469 0 0 0-15.907188-0.464192L110.258607 178.052198c-0.163327 0.060173-0.305164 0.150433-0.464193 0.210606-0.11175 0.042981-0.227798 0.055875-0.339548 0.098856-0.232096 0.094558-0.434106 0.249289-0.661904 0.352442a21.060584 21.060584 0 0 0-2.518674 1.345299c-0.33525 0.210606-0.666202 0.416914-0.988558 0.644712a21.370046 21.370046 0 0 0-2.458501 2.015798c-0.154731 0.150433-0.330952 0.275077-0.485683 0.429808-0.889702 0.902596-1.680549 1.886856-2.398328 2.926992-0.189115 0.275077-0.348144 0.571644-0.524365 0.859615a21.318469 21.318469 0 0 0-1.375385 2.591742c-0.085962 0.197712-0.219202 0.365337-0.300866 0.567346L23.093576 372.411306a21.490392 21.490392 0 0 0 10.788176 27.610856l62.257667 29.093693v366.398294a21.49469 21.49469 0 0 0 12.580476 19.556257l407.260126 185.505066c0.227798 0.103154 0.464192 0.167625 0.69199 0.266481 0.464192 0.193414 0.928385 0.378231 1.405472 0.53726 0.369635 0.120346 0.743568 0.232096 1.121798 0.33525 0.472789 0.124644 0.949875 0.253587 1.431261 0.343846 0.386827 0.085962 0.773654 0.137539 1.164779 0.20201a20.235353 20.235353 0 0 0 2.626126 0.219202 22.32422 22.32422 0 0 0 4.031597-0.296567c0.408317-0.077365 0.808039-0.150433 1.212058-0.244991a18.774007 18.774007 0 0 0 2.561655-0.756462c0.210606-0.081663 0.42551-0.120346 0.631818-0.210605l421.366419-168.286964a21.507585 21.507585 0 0 0 13.521755-19.964575v-354.307799l75.861085-29.441838a21.511883 21.511883 0 0 0 12.172158-12.034619 21.447411 21.447411 0 0 0-0.485683-17.102054z m-416.294687 140.070078l-83.533155-157.0217 379.666463-138.41102 71.494237 152.758006-367.627545 142.674714z m-207.777709-1.65476L70.626025 369.750795l58.642983-143.22057 367.5029 156.033142-65.549995 155.684998z m455.166509-321.758451l-360.896754 131.572778-349.644384-148.451332 349.356413-129.294796 361.184725 146.17335z m-453.124921 370.159113a21.486094 21.486094 0 0 0 28.908875-11.136322l41.231467-97.927419v470.029264l-364.279341-165.927319v-332.486455l294.138999 137.448251z m491.502464 211.517037l-378.385635 151.129034V457.31125l63.637349 119.628417a21.490392 21.490392 0 0 0 26.746942 9.937158l288.00994-111.775829-0.008596 323.065068z" fill="#6E6E96" p-id="4295"></path><path d="M70.626025 369.750795L143.985628 269.158567l352.78628 113.4048-367.5029-156.033142zM638.999622 539.903125l-40.131158-140.366646 336.264466-155.066074-379.666463 138.415318z" fill="#FFFFFF" opacity=".25" p-id="4296"></path></svg>